<?xml version="1.0" encoding="utf-8"?>
<!-- Generator: Adobe Illustrator 25.2.1, SVG Export Plug-In . SVG Version: 6.00 Build 0)  -->
<svg version="1.1" id="图层_1" xmlns="http://www.w3.org/2000/svg" xmlns:xlink="http://www.w3.org/1999/xlink" x="0px" y="0px"
	 viewBox="0 0 1658.2 458.3" style="enable-background:new 0 0 1658.2 458.3;" xml:space="preserve">
<style type="text/css">
	.st0{fill:#17F700;}
</style>
<polygon class="st0" points="321.8,330.1 321.8,458.3 190.1,458.3 190.1,458.4 132.2,458.4 132.2,458.3 52.4,458.3 52.4,458.4 
	0.4,458.4 0.4,329.8 52.4,329.8 52.4,304.3 96.2,304.3 96.2,189.1 190.1,189.1 190.1,247.5 257.5,247.5 257.5,330.1 "/>
<polygon class="st0" points="179.2,189 105.8,189 105.8,172.1 114.5,172.1 114.5,159.8 172.8,159.8 172.8,172.1 179.2,172.1 "/>
<rect x="1606.7" y="329.8" class="st0" width="52" height="128.6"/>
<rect x="1510.9" y="271.1" class="st0" width="95.2" height="187.2"/>
<polygon class="st0" points="465.3,227.7 493.9,227.7 493.9,458.4 436,458.4 436,458.3 420.9,458.3 420.9,458.3 340.8,458.3 
	340.8,186.9 420.9,186.9 420.9,381 436,381 436,381.1 465.3,381.1 "/>
<polygon class="st0" points="632.6,208 632.6,458.3 580.7,458.3 580.7,458.4 561.7,458.4 561.7,458.3 493.9,458.3 493.9,227.6 
	561.7,227.6 561.7,208.1 580.6,208.1 580.6,208 "/>
<polygon class="st0" points="854,99.1 854,458.4 789.4,458.4 789.4,458.3 830.7,458.3 830.7,458.3 733.8,458.3 733.8,458.4 
	662.7,458.4 662.7,236.5 719.6,236.5 719.6,11.4 725.4,11.4 725.4,0.1 832.9,0.1 832.9,11.4 838.7,11.4 838.7,99.1 "/>
<path class="st0" d="M994.5,172.5L994.5,172.5L994.5,172.5l0-77.4h-8.9V81.8h-96.2v13.4h0v0h-10.7v62.1h-17.3v301.1h63.8v0h87.5
	V172.5H994.5z M925.1,95.1L925.1,95.1L925.1,95.1L925.1,95.1L925.1,95.1z M925.2,172.6L925.2,172.6L925.2,172.6L925.2,172.6
	L925.2,172.6z"/>
<polygon class="st0" points="969.1,81.8 901.9,81.8 901.9,65.6 911.7,65.6 911.7,57.5 961.3,57.5 961.3,65.6 969.1,65.6 "/>
<polygon class="st0" points="1050.5,112.9 1073.2,112.9 1073.2,141.7 1073.2,141.7 1073.2,169.2 1073.1,169.2 1073.1,458.3 
	1027.8,458.3 1027.8,169.2 1039.2,169.2 1039.2,141.7 1050.5,141.7 "/>
<polygon class="st0" points="1118.5,141.7 1118.5,458.4 1089.2,458.4 1089.2,458.3 1073.2,458.3 1073.2,87.4 1076.4,87.4 
	1076.4,112.9 1097.6,112.9 1097.6,141.7 "/>
<polygon class="st0" points="1500.6,189.1 1500.6,458.4 1126.2,458.4 1126.2,246 1200.4,246 1200.4,130.6 1296,130.6 1296,339 
	1406.7,339 1406.7,189.1 "/>
<polygon class="st0" points="1489.8,189 1416.4,189 1416.4,172.1 1425,172.1 1425,172.2 1446.6,172.2 1446.6,172.1 1425,172.1 
	1425,159.8 1452.8,159.8 1452.8,117 1455.4,117 1455.4,159.8 1483.3,159.8 1483.3,172.1 1489.8,172.1 "/>
</svg>
