<?xml version="1.0" encoding="utf-8"?>
<!-- Generator: Adobe Illustrator 25.2.1, SVG Export Plug-In . SVG Version: 6.00 Build 0)  -->
<svg version="1.1" id="图层_1" xmlns="http://www.w3.org/2000/svg" xmlns:xlink="http://www.w3.org/1999/xlink" x="0px" y="0px"
	 viewBox="0 0 171 78" style="enable-background:new 0 0 171 78;" xml:space="preserve">
<style type="text/css">
	.st0{fill:#171717;}
</style>
<path class="st0" d="M170,63.3v2.9c0,1.5-1.2,2.6-2.6,2.6h-18.1c-0.7,5.2-5.1,9.2-10.4,9.2c-5.3,0-9.8-4-10.4-9.2h-9.2V18.9
	c0-2.4,1.9-4.3,4.3-4.3h19.1c3,0,5.8,1.5,7.5,3.9l13.9,19.7c0.8,1.1,1.2,2.5,1.2,3.8v18.6h2.1C168.8,60.7,170,61.9,170,63.3z"/>
<path class="st0" d="M115.2,22.7h5v46.1h-5.1v0.1h-44C70.4,74,66,78,60.7,78s-9.7-4-10.4-9.1h-9.9C39.7,74,35.3,78,30,78
	s-9.7-4-10.4-9.1h-17c-1.5,0-2.7-1.2-2.7-2.7v-3c0-1.5,1.2-2.7,2.7-2.7h3v-55C5.6,2.4,8,0,11.1,0h98.6c3,0,5.5,2.4,5.5,5.5V22.7z"/>
</svg>
